<svg width="50" height="50" viewBox="0 0 50 50" fill="none" xmlns="http://www.w3.org/2000/svg">
<g clip-path="url(#clip0_73_3184)">
<path d="M9.28963 8.76664C10.8438 10.0291 11.4271 9.93331 14.348 9.73747L41.8792 8.08539C42.4625 8.08539 41.9771 7.50206 41.7834 7.40622L37.2084 4.09997C36.3334 3.42081 35.1646 2.64164 32.9271 2.83539L6.27088 4.78122C5.30005 4.87706 5.10422 5.36456 5.49171 5.75206L9.28963 8.76664ZM10.9417 15.1833V44.15C10.9417 45.7062 11.7188 46.2896 13.4709 46.1916L43.7271 44.4416C45.4792 44.3458 45.675 43.275 45.675 42.0104V13.2375C45.675 11.975 45.1896 11.2937 44.1167 11.3896L12.498 13.2375C11.3313 13.3354 10.9417 13.9187 10.9417 15.1812V15.1833ZM40.8105 16.7354C41.0042 17.6104 40.8105 18.4854 39.9355 18.5854L38.4771 18.8771V40.2604C37.2105 40.9416 36.0438 41.3312 35.0709 41.3312C33.5125 41.3312 33.123 40.8437 31.9563 39.3875L22.4209 24.4166V38.9L25.4375 39.5833C25.4375 39.5833 25.4375 41.3333 23.0042 41.3333L16.2917 41.7208C16.098 41.3333 16.2917 40.3604 16.973 40.1666L18.723 39.6812V20.5291L16.2959 20.3333C16.1 19.4583 16.5875 18.1958 17.948 18.0979L25.148 17.6125L35.073 32.7771V19.3604L32.5417 19.0708C32.348 18 33.125 17.2229 34.098 17.1271L40.8105 16.7354ZM4.03338 2.15622L31.7625 0.114555C35.1667 -0.177112 36.0438 0.0166382 38.1834 1.57289L47.0355 7.79372C48.4938 8.86247 48.9813 9.15414 48.9813 10.3208V44.4416C48.9813 46.5791 48.2042 47.8458 45.4813 48.0375L13.2771 49.9833C11.2355 50.0812 10.2605 49.7896 9.18963 48.4271L2.67088 39.9687C1.50422 38.4125 1.0188 37.2479 1.0188 35.8854V5.55622C1.0188 3.80831 1.79797 2.34789 4.03338 2.15622Z" fill="#C9C9C9"/>
</g>
<defs>
<clipPath id="clip0_73_3184">
<rect width="50" height="50" fill="white"/>
</clipPath>
</defs>
</svg>
