<svg width="200" height="200" viewBox="0 0 200 200" fill="none" xmlns="http://www.w3.org/2000/svg">
<path d="M100 2.4751C44.75 2.4751 0 47.2501 0 102.475C0 146.667 28.65 184.142 68.375 197.35C73.375 198.292 75.2083 195.2 75.2083 192.542C75.2083 190.167 75.125 183.875 75.0833 175.542C47.2667 181.575 41.4 162.125 41.4 162.125C36.85 150.583 30.275 147.5 30.275 147.5C21.2167 141.3 30.975 141.425 30.975 141.425C41.0167 142.125 46.2917 151.725 46.2917 151.725C55.2083 167.017 69.7 162.6 75.4167 160.042C76.3167 153.575 78.8917 149.167 81.75 146.667C59.5417 144.167 36.2 135.567 36.2 97.2501C36.2 86.3334 40.075 77.4168 46.4917 70.4168C45.3667 67.8918 41.9917 57.7251 47.3667 43.9501C47.3667 43.9501 55.7417 41.2668 74.8667 54.2001C82.8667 51.9751 91.3667 50.8751 99.8667 50.8251C108.367 50.8751 116.867 51.9751 124.867 54.2001C143.867 41.2668 152.242 43.9501 152.242 43.9501C157.617 57.7251 154.242 67.8918 153.242 70.4168C159.617 77.4168 163.492 86.3334 163.492 97.2501C163.492 135.667 140.117 144.125 117.867 146.583C121.367 149.583 124.617 155.717 124.617 165.083C124.617 178.467 124.492 189.217 124.492 192.467C124.492 195.092 126.242 198.217 131.367 197.217C171.375 184.1 200 146.6 200 102.475C200 47.2501 155.225 2.4751 100 2.4751Z" fill="#8685EF"/>
</svg>
