<svg width="27" height="27" viewBox="0 0 27 27" fill="none" xmlns="http://www.w3.org/2000/svg">
<g clip-path="url(#clip0_73_3102)">
<path d="M13.1423 7.8182L4.49996 15.8259V24.4686C4.49996 24.6923 4.57898 24.9069 4.71963 25.0652C4.86028 25.2234 5.05104 25.3123 5.24996 25.3123L10.5028 25.297C10.701 25.2959 10.8908 25.2065 11.0307 25.0484C11.1705 24.8903 11.249 24.6763 11.249 24.4533V19.4061C11.249 19.1823 11.328 18.9677 11.4687 18.8094C11.6093 18.6512 11.8001 18.5623 11.999 18.5623H14.999C15.1979 18.5623 15.3887 18.6512 15.5293 18.8094C15.67 18.9677 15.749 19.1823 15.749 19.4061V24.4496C15.7487 24.5606 15.7679 24.6706 15.8054 24.7733C15.843 24.8759 15.8982 24.9693 15.9678 25.0479C16.0375 25.1265 16.1203 25.1889 16.2114 25.2315C16.3026 25.274 16.4003 25.296 16.499 25.296L21.7499 25.3123C21.9488 25.3123 22.1396 25.2234 22.2802 25.0652C22.4209 24.9069 22.4999 24.6923 22.4999 24.4686V15.8201L13.8595 7.8182C13.7579 7.72609 13.6313 7.67586 13.5009 7.67586C13.3704 7.67586 13.2439 7.72609 13.1423 7.8182ZM26.7937 13.2609L22.8749 9.62699V2.32275C22.8749 2.15492 22.8156 1.99396 22.7102 1.87529C22.6047 1.75661 22.4616 1.68994 22.3124 1.68994H19.6874C19.5382 1.68994 19.3952 1.75661 19.2897 1.87529C19.1842 1.99396 19.1249 2.15492 19.1249 2.32275V6.1518L14.9282 2.26738C14.5255 1.89454 14.0201 1.69069 13.4985 1.69069C12.977 1.69069 12.4716 1.89454 12.0688 2.26738L0.203407 13.2609C0.146448 13.3139 0.0993238 13.379 0.0647264 13.4524C0.030129 13.5259 0.00873666 13.6063 0.00177171 13.689C-0.00519325 13.7718 0.00240569 13.8553 0.0241343 13.9348C0.045863 14.0142 0.0812955 14.0881 0.128407 14.1521L1.32372 15.7869C1.3707 15.8512 1.42849 15.9044 1.49378 15.9435C1.55907 15.9826 1.63057 16.0068 1.7042 16.0148C1.77782 16.0228 1.85213 16.0144 1.92285 15.99C1.99358 15.9657 2.05934 15.9258 2.11637 15.8729L13.1423 5.65609C13.2439 5.56398 13.3704 5.51375 13.5009 5.51375C13.6313 5.51375 13.7579 5.56398 13.8595 5.65609L24.8858 15.8729C24.9428 15.9259 25.0084 15.9657 25.0791 15.9902C25.1497 16.0146 25.2239 16.0232 25.2975 16.0153C25.371 16.0075 25.4425 15.9834 25.5078 15.9445C25.5731 15.9056 25.631 15.8526 25.678 15.7885L26.8733 14.1537C26.9204 14.0893 26.9557 14.015 26.9772 13.9352C26.9986 13.8554 27.0059 13.7716 26.9985 13.6887C26.9911 13.6057 26.9692 13.5252 26.934 13.4518C26.8989 13.3784 26.8512 13.3135 26.7937 13.2609Z" fill="#C9C9C9"/>
</g>
<defs>
<clipPath id="clip0_73_3102">
<rect width="27" height="27" fill="white"/>
</clipPath>
</defs>
</svg>
