<svg width="100" height="100" viewBox="0 0 100 100" fill="none" xmlns="http://www.w3.org/2000/svg">
<path d="M6.39162 24.475C-2.45421 37.1833 -1.35838 53.7125 5.40412 67.2083C5.55829 67.5375 5.72912 67.85 5.89579 68.1625C5.99162 68.3791 6.09996 68.5791 6.21662 68.7833C6.27079 68.9 6.34579 69.0208 6.41246 69.1291C6.52079 69.3458 6.63746 69.5541 6.74996 69.7625L7.40412 70.8666C7.52496 71.0708 7.64162 71.2708 7.77912 71.475C8.00829 71.8666 8.27912 72.2541 8.51662 72.6458C8.62496 72.8083 8.72496 72.9708 8.84579 73.1333C9.24988 73.768 9.68083 74.3852 10.1375 74.9833C10.4625 75.4291 10.7875 75.8625 11.1375 76.2958C11.25 76.4541 11.375 76.6125 11.4916 76.7708L12.4125 77.8916C12.525 78.0208 12.6375 78.1708 12.7583 78.3041C13.1666 78.7958 13.6 79.275 14.0333 79.7583C14.0333 79.7666 14.0458 79.775 14.0541 79.7875C14.5818 80.4547 15.1735 81.0688 15.8208 81.6208C16.1541 81.9625 16.4875 82.3041 16.8416 82.6375L17.2625 83.0416C17.725 83.475 18.1875 83.9083 18.675 84.325C18.6833 84.325 18.6875 84.3333 18.6958 84.3375L18.9333 84.5458C19.3583 84.9166 19.7875 85.2875 20.225 85.6291L20.7458 86.0666C21.1 86.35 21.4666 86.6208 21.8291 86.9L22.3958 87.3333C22.7833 87.625 23.1958 87.9125 23.5916 88.1958C23.7375 88.3 23.8833 88.4041 24.0333 88.5L24.1541 88.5958L25.325 89.3666L25.825 89.7C26.4375 90.0916 27.0458 90.4625 27.65 90.8291C27.825 90.9166 28 91.0125 28.1625 91.1125C28.6125 91.3708 29.0791 91.6333 29.5333 91.875C29.7833 92.0166 30.0416 92.1375 30.3 92.2666C30.6125 92.4416 30.9375 92.6125 31.2708 92.7875C31.3514 92.812 31.4295 92.8441 31.5041 92.8833C31.6416 92.9458 31.7708 93.0125 31.9041 93.0791C32.4041 93.3291 32.9249 93.5666 33.4666 93.8041C33.5666 93.8458 33.675 93.8875 33.7833 93.9458C34.3833 94.2083 34.9833 94.4583 35.6041 94.7041C35.7458 94.7458 35.8958 94.8166 36.0416 94.8708C36.6041 95.0833 37.1833 95.3 37.7541 95.5041L37.9625 95.5791C38.6 95.7958 39.2291 96.0041 39.875 96.2041C40.025 96.2458 40.1791 96.3 40.3375 96.3416C41 96.5416 41.6416 96.7791 42.3083 96.9083C85.0583 104.7 97.4833 71.2041 97.4833 71.2041C87.0458 84.7958 68.525 88.3791 50.9833 84.3916C50.3333 84.2416 49.6833 84.0333 49.0291 83.8416C48.2362 83.6076 47.4485 83.3562 46.6666 83.0875L46.4083 82.9875C45.8416 82.7958 45.2958 82.5833 44.7416 82.3708C44.591 82.3083 44.4381 82.2513 44.2833 82.2C43.6708 81.9541 43.075 81.7 42.4833 81.4375C42.3541 81.3958 42.2458 81.3375 42.1166 81.2875C41.6132 81.0556 41.1118 80.8195 40.6125 80.5791C40.4583 80.5125 40.3208 80.4416 40.1708 80.3625C39.7791 80.1791 39.3875 79.9708 39.0041 79.7708C38.7409 79.6444 38.4811 79.511 38.225 79.3708C37.7541 79.1208 37.2833 78.85 36.8125 78.5916C36.6708 78.4916 36.5083 78.4083 36.3458 78.3166C35.7315 77.9529 35.123 77.5792 34.5208 77.1958C34.3532 77.0916 34.1893 76.9818 34.0291 76.8666C33.587 76.5941 33.1534 76.3078 32.7291 76.0083C32.5833 75.9125 32.45 75.8083 32.3 75.7041C31.8861 75.4175 31.4777 75.123 31.075 74.8208C30.9 74.6791 30.7125 74.5458 30.525 74.4041C30.1583 74.1166 29.7875 73.8416 29.4208 73.5375L28.9291 73.1458C28.4572 72.7651 27.9932 72.3748 27.5375 71.975C27.49 71.9286 27.4384 71.8868 27.3833 71.85L25.9375 70.5333L25.5208 70.1416C25.1791 69.7958 24.8291 69.4625 24.4791 69.1208L24.075 68.7041C23.6348 68.2662 23.2055 67.8174 22.7875 67.3583L22.725 67.2916C22.2833 66.8083 21.8541 66.3166 21.4208 65.8166C21.3083 65.6875 21.2041 65.55 21.0875 65.4125L20.1458 64.2583C19.6654 63.6423 19.1931 63.0201 18.7291 62.3916C8.99996 49.1083 5.47912 30.775 13.2666 15.7375L6.39162 24.475ZM33.8375 13.7708C27.425 22.975 27.7875 35.2833 32.7791 45.0166C33.6041 46.655 34.5468 48.2314 35.6 49.7333C36.5583 51.1083 37.6166 52.7333 38.9 53.8416C39.3458 54.35 39.8291 54.8416 40.3333 55.3375L40.7083 55.7125C41.1833 56.1708 41.6708 56.6208 42.1666 57.0666L42.2291 57.1208C42.7911 57.6114 43.3663 58.0865 43.9541 58.5458C44.0958 58.6416 44.2166 58.7541 44.3541 58.85C44.9375 59.3 45.525 59.7333 46.1333 60.1625L46.1958 60.2C46.4541 60.3875 46.7291 60.5583 47.0208 60.7416C47.1375 60.8166 47.2708 60.9166 47.3958 60.9916C47.8375 61.275 48.2708 61.5416 48.7166 61.8125C48.7875 61.8416 48.85 61.8791 48.9166 61.9083C49.2916 62.1375 49.7 62.3583 50.0916 62.5625C50.2291 62.6458 50.3625 62.7083 50.5041 62.7875C50.7833 62.925 51.0583 63.0708 51.325 63.2125L51.4583 63.2708C52.0208 63.5458 52.5958 63.8041 53.1583 64.0625C53.3 64.1166 53.4208 64.1625 53.5416 64.2208C54.0041 64.4208 54.475 64.6125 54.9375 64.7916C55.1458 64.8625 55.3416 64.9458 55.5375 65.0083C55.9625 65.1666 56.4083 65.3125 56.8291 65.4583L57.4125 65.6458C58.0208 65.8333 58.6375 66.0791 59.2791 66.1833C92.2791 71.6541 99.9208 46.2375 99.9208 46.2375C93.0416 56.1375 79.7291 60.8541 65.5416 57.1708C64.9143 57.0083 64.2918 56.8277 63.6749 56.6291C63.4749 56.575 63.3 56.5125 63.1083 56.4541C62.675 56.3041 62.2291 56.1583 61.8083 56L61.2083 55.775C60.7416 55.5875 60.2666 55.4125 59.8125 55.2125C59.6708 55.15 59.5416 55.1083 59.4333 55.0458C58.85 54.7833 58.2625 54.525 57.6958 54.2458L56.8375 53.8L56.3416 53.55C55.9583 53.35 55.6041 53.1416 55.2375 52.925C55.1487 52.8827 55.0625 52.8354 54.9791 52.7833C54.5375 52.5083 54.0791 52.2416 53.6583 51.9583C53.5166 51.8791 53.3875 51.7833 53.2541 51.7L52.3875 51.1333C51.7875 50.7166 51.2 50.2666 50.6083 49.8333C50.475 49.7125 50.3458 49.6125 50.2166 49.5041C43.9791 44.6 39.0583 37.8958 36.725 30.3041C34.2666 22.4125 34.8083 13.5625 39.0541 6.37912L33.8375 13.7708ZM56.9166 5.76662C53.1333 11.3166 52.7708 18.2083 55.375 24.3291C58.1416 30.8291 63.8 35.9333 70.3916 38.35C70.6625 38.4541 70.925 38.5416 71.2041 38.6416L71.5708 38.7541C71.9541 38.875 72.3416 39.0166 72.7375 39.1041C90.9708 42.6208 95.9041 29.7416 97.2333 27.85C92.8916 34.0833 85.6124 35.5791 76.6833 33.4083C75.9548 33.2262 75.237 33.0037 74.5333 32.7416C73.6584 32.4342 72.8002 32.0809 71.9625 31.6833C70.3768 30.9147 68.8697 29.9937 67.4625 28.9333C59.4625 22.875 54.5083 11.3083 59.7249 1.88745" fill="#8685EF"/>
</svg>
