<svg width="100" height="100" viewBox="0 0 100 100" fill="none" xmlns="http://www.w3.org/2000/svg">
<g clip-path="url(#clip0_73_3011)">
<path d="M74.2208 93.7585C73.85 93.9543 73.8708 94.0335 74.2417 93.846C74.3502 93.7994 74.4491 93.733 74.5333 93.6501C74.5333 93.5835 74.525 93.5918 74.2208 93.7585ZM74.9625 93.3668C74.7875 93.5043 74.7875 93.5126 75 93.4043C75.1167 93.346 75.2167 93.2793 75.2167 93.2585C75.2167 93.1793 75.1666 93.2001 74.9625 93.3668ZM75.45 93.071C75.275 93.2085 75.275 93.2168 75.4875 93.1085C75.6041 93.0501 75.7042 92.9835 75.7042 92.9626C75.7042 92.8835 75.6542 92.9043 75.45 93.071ZM75.9375 92.7793C75.7625 92.9168 75.7625 92.9251 75.975 92.8168C76.0916 92.7585 76.1917 92.6918 76.1917 92.671C76.1917 92.5918 76.1417 92.6126 75.9375 92.7793ZM76.6125 92.3418C76.2708 92.5585 76.1625 92.7043 76.4666 92.5376C76.6833 92.4126 77.0333 92.146 76.975 92.1376C76.8472 92.1925 76.7257 92.261 76.6125 92.3418ZM46.725 0.0251212C46.5083 0.0459546 45.825 0.112621 45.2083 0.162621C31.0083 1.44179 17.7042 9.10429 9.27915 20.8835C4.62149 27.3487 1.59401 34.843 0.45415 42.7293C0.0541504 45.4751 0.00415039 46.2876 0.00415039 50.0126C0.00415039 53.7376 0.0541504 54.546 0.45415 57.296C3.17082 76.071 16.5333 91.846 34.6541 97.6918C37.9 98.7376 41.3208 99.4501 45.2083 99.8793C46.725 100.046 53.2708 100.046 54.7875 99.8793C61.5 99.1376 67.1917 97.4751 72.8 94.6126C73.6583 94.171 73.825 94.0543 73.7083 93.9585C70.9688 90.3388 68.2548 86.6998 65.5666 83.0418L57.5708 72.2418L47.5541 57.4168C44.2237 52.4562 40.8611 47.5172 37.4666 42.6001C37.4291 42.5918 37.3875 49.1793 37.3708 57.221C37.3416 71.3043 37.3333 71.871 37.1541 72.2043C36.9841 72.5937 36.6794 72.9088 36.2958 73.0918C35.9833 73.2501 35.7083 73.2793 34.2333 73.2793H32.5416L32.0917 72.996C31.814 72.821 31.5882 72.575 31.4375 72.2835L31.2333 71.8418L31.2541 52.246L31.2833 32.6418L31.5875 32.2626C31.7918 32.0225 32.0373 31.8208 32.3125 31.6668C32.7125 31.471 32.8708 31.4501 34.5625 31.4501C36.5583 31.4501 36.8875 31.5293 37.4083 32.096C41.4631 38.1303 45.484 44.1874 49.4708 50.2668C55.9625 60.1085 64.8333 73.546 69.1958 80.146L77.1125 92.1376L77.5125 91.8751C81.3218 89.3413 84.7759 86.3104 87.7833 82.8626C94.0832 75.6529 98.1688 66.7785 99.55 57.3043C99.95 54.5585 100 53.746 100 50.021C100 46.296 99.95 45.4876 99.55 42.7376C96.8333 23.9626 83.4708 8.18762 65.35 2.34179C61.9636 1.26365 58.4761 0.533491 54.9416 0.162621C54.0041 0.0667879 47.5416 -0.0415454 46.7333 0.0376212L46.725 0.0251212ZM67.1917 30.2668C67.4247 30.3839 67.632 30.5463 67.8016 30.7445C67.9711 30.9426 68.0995 31.1726 68.1792 31.421C68.2583 31.6751 68.275 37.1085 68.2583 49.3543L68.2291 66.9293L65.1291 62.1793L62.0208 57.4293V44.6543C62.0208 36.396 62.0583 31.7543 62.1166 31.5293C62.1873 31.2696 62.3093 31.0267 62.4753 30.8149C62.6413 30.6031 62.848 30.4266 63.0833 30.296C63.4833 30.0918 63.6291 30.071 65.1666 30.071C66.6125 30.071 66.8666 30.0918 67.1917 30.2668Z" fill="#8685EF"/>
</g>
<defs>
<clipPath id="clip0_73_3011">
<rect width="100" height="100" fill="white"/>
</clipPath>
</defs>
</svg>
