<svg width="200" height="200" viewBox="0 0 200 200" fill="none" xmlns="http://www.w3.org/2000/svg">
<g clip-path="url(#clip0_73_3043)">
<path d="M37.1583 35.0666C43.3749 40.1166 45.7083 39.7332 57.3916 38.9499L167.517 32.3416C169.85 32.3416 167.908 30.0082 167.133 29.6249L148.833 16.3999C145.333 13.6832 140.658 10.5666 131.708 11.3416L25.0833 19.1249C21.1999 19.5082 20.4166 21.4582 21.9666 23.0082L37.1583 35.0666ZM43.7666 60.7332V176.6C43.7666 182.825 46.875 185.158 53.8833 184.767L174.908 177.767C181.917 177.383 182.7 173.1 182.7 168.042V52.9499C182.7 47.8999 180.758 45.1749 176.467 45.5582L49.9916 52.9499C45.325 53.3416 43.7666 55.6749 43.7666 60.7249V60.7332ZM163.242 66.9416C164.017 70.4416 163.242 73.9416 159.742 74.3416L153.908 75.5082V161.042C148.842 163.767 144.175 165.325 140.283 165.325C134.05 165.325 132.492 163.375 127.825 157.55L89.6833 97.6666V155.6L101.75 158.333C101.75 158.333 101.75 165.333 92.0166 165.333L65.1666 166.883C64.3916 165.333 65.1666 161.442 67.8916 160.667L74.8916 158.725V82.1166L65.1833 81.3332C64.4 77.8332 66.3499 72.7832 71.7916 72.3916L100.592 70.4499L140.292 131.108V77.4416L130.167 76.2832C129.392 71.9999 132.5 68.8916 136.392 68.5082L163.242 66.9416ZM16.1333 8.62489L127.05 0.458219C140.667 -0.708447 144.175 0.0665526 152.733 6.29155L188.142 31.1749C193.975 35.4499 195.925 36.6166 195.925 41.2832V177.767C195.925 186.317 192.817 191.383 181.925 192.15L53.1083 199.933C44.9416 200.325 41.0416 199.158 36.7583 193.708L10.6833 159.875C6.01662 153.65 4.07495 148.992 4.07495 143.542V22.2249C4.07495 15.2332 7.19162 9.39155 16.1333 8.62489V8.62489Z" fill="#8685EF"/>
</g>
<defs>
<clipPath id="clip0_73_3043">
<rect width="200" height="200" fill="white"/>
</clipPath>
</defs>
</svg>
