<svg width="27" height="27" viewBox="0 0 27 27" fill="none" xmlns="http://www.w3.org/2000/svg">
<g clip-path="url(#clip0_73_3099)">
<path d="M26.2296 19.0788L20.3233 16.5475C20.071 16.44 19.7906 16.4174 19.5243 16.483C19.258 16.5486 19.0202 16.699 18.8467 16.9114L16.2311 20.1071C12.1261 18.1717 8.82257 14.8681 6.88711 10.7631L10.0828 8.1475C10.2957 7.97436 10.4464 7.73658 10.512 7.47015C10.5777 7.20373 10.5547 6.92317 10.4467 6.67094L7.91543 0.764697C7.79684 0.492803 7.58709 0.270811 7.32235 0.136999C7.05762 0.00318787 6.75449 -0.0340561 6.46523 0.0316898L0.980859 1.29731C0.701984 1.36171 0.45317 1.51873 0.275028 1.74275C0.0968863 1.96677 -6.42415e-05 2.24455 3.1937e-08 2.53077C3.1937e-08 16.0571 10.9635 26.9995 24.4688 26.9995C24.7551 26.9997 25.033 26.9028 25.2571 26.7246C25.4812 26.5465 25.6383 26.2976 25.7027 26.0186L26.9684 20.5343C27.0337 20.2436 26.9956 19.9393 26.8608 19.6736C26.726 19.408 26.5027 19.1976 26.2296 19.0788Z" fill="#C9C9C9"/>
</g>
<defs>
<clipPath id="clip0_73_3099">
<rect width="27" height="27" fill="white"/>
</clipPath>
</defs>
</svg>
