<svg width="100" height="100" viewBox="0 0 100 100" fill="none" xmlns="http://www.w3.org/2000/svg">
<path d="M29.2083 42.5291H25.275L23.1292 53.5625H26.6208C28.9375 53.5625 30.6625 53.125 31.7958 52.2541C32.9292 51.3791 33.6917 49.925 34.0875 47.8833C34.4708 45.925 34.2958 44.5416 33.5708 43.7375C32.8417 42.9333 31.3917 42.5291 29.2083 42.5291V42.5291ZM50 23.7C22.3875 23.7 0 35.475 0 50C0 64.525 22.3875 76.3041 50 76.3041C77.6125 76.3041 100 64.525 100 50C100 35.475 77.6125 23.7 50 23.7ZM36.4167 54.7458C35.3292 55.7875 34.0208 56.5708 32.5958 57.0416C31.1958 57.4916 29.4083 57.725 27.2417 57.725H22.3208L20.9583 64.7291H15.2167L20.3417 38.3708H31.3833C34.7042 38.3708 37.125 39.2416 38.65 40.9875C40.175 42.7291 40.6333 45.1625 40.025 48.2875C39.792 49.524 39.363 50.7154 38.7542 51.8166C38.1583 52.8791 37.3792 53.8583 36.4167 54.7458ZM53.1833 57.725L55.4458 46.0625C55.7083 44.7375 55.6083 43.8291 55.1625 43.35C54.7167 42.8666 53.7625 42.6249 52.3 42.6249H47.75L44.8167 57.7291H39.1167L44.2417 31.3666H49.9375L48.575 38.375H53.65C56.8458 38.375 59.0458 38.9333 60.2583 40.0458C61.4708 41.1583 61.8333 42.9625 61.3542 45.4583L58.9708 57.725H53.1833V57.725ZM84.8375 48.2875C84.6083 49.525 84.1791 50.717 83.5667 51.8166C82.9708 52.8791 82.1917 53.8583 81.2292 54.7458C80.1411 55.7843 78.8361 56.5684 77.4083 57.0416C76.0083 57.4916 74.2208 57.725 72.05 57.725H67.1333L65.7708 64.7333H60.0292L65.1542 38.375H76.1917C79.5125 38.375 81.9333 39.2458 83.4583 40.9916C84.9833 42.7291 85.4458 45.1625 84.8375 48.2875V48.2875ZM74.025 42.5291H70.0958L67.9458 53.5625H71.4375C73.7583 53.5625 75.4833 53.125 76.6125 52.2541C77.7458 51.3791 78.5083 49.925 78.9083 47.8833C79.2917 45.925 79.1125 44.5416 78.3875 43.7375C77.6625 42.9333 76.2042 42.5291 74.025 42.5291V42.5291Z" fill="#8685EF"/>
</svg>
