<svg width="100" height="100" viewBox="0 0 100 100" fill="none" xmlns="http://www.w3.org/2000/svg">
<g clip-path="url(#clip0_238_2193)">
<path d="M87.5 0H12.5C5.59583 0 0 5.59583 0 12.5V87.5C0 94.4 5.59583 100 12.5 100H87.5C94.4 100 100 94.4 100 87.5V12.5C100 5.59583 94.4 0 87.5 0ZM43.5 75.75C43.5 79.0625 40.8125 81.75 37.5 81.75H19C15.6875 81.75 13 79.0583 13 75.75V19C13 15.6875 15.6875 13 19 13H37.5C40.8125 13 43.5 15.6875 43.5 19V75.75ZM87 50.75C87 54.0583 84.3125 56.75 81 56.75H62.5C59.1875 56.75 56.5 54.0583 56.5 50.75V19C56.5 15.6875 59.1917 13 62.5 13H81C84.3125 13 87 15.6875 87 19V50.75V50.75Z" fill="#8685EF"/>
</g>
<defs>
<clipPath id="clip0_238_2193">
<rect width="100" height="100" fill="white"/>
</clipPath>
</defs>
</svg>
