<svg width="100" height="100" viewBox="0 0 100 100" fill="none" xmlns="http://www.w3.org/2000/svg">
<g clip-path="url(#clip0_238_2196)">
<path d="M82.9167 80L65 50L82.9167 20L91.6667 50L82.9167 80ZM43.3333 77.0833L20.8333 55H56.6667L74.5833 85L43.3333 77.0833ZM43.3333 22.5L74.5833 14.5833L56.6667 44.5833H20.4167C20.4167 45 43.3333 22.5 43.3333 22.5V22.5ZM89.1667 0L48.3333 10.4167L42.0833 20.8333H30L0 50L30 79.1667H42.0833L47.9167 89.5833L88.75 100L99.5833 60.4167L93.75 50L100 39.5833L89.1667 0Z" fill="#8685EF"/>
</g>
<defs>
<clipPath id="clip0_238_2196">
<rect width="100" height="100" fill="white"/>
</clipPath>
</defs>
</svg>
