<svg width="200" height="200" viewBox="0 0 200 200" fill="none" xmlns="http://www.w3.org/2000/svg">
<path d="M183.333 12.5H16.6667C7.46528 12.5 0 20.8984 0 31.25V168.75C0 179.102 7.46528 187.5 16.6667 187.5H183.333C192.535 187.5 200 179.102 200 168.75V31.25C200 20.8984 192.535 12.5 183.333 12.5ZM61.1111 50C73.368 50 83.3333 61.2109 83.3333 75C83.3333 88.7891 73.368 100 61.1111 100C48.8542 100 38.8889 88.7891 38.8889 75C38.8889 61.2109 48.8542 50 61.1111 50ZM100 142.5C100 146.641 96.5278 150 92.2222 150H30C25.6944 150 22.2222 146.641 22.2222 142.5V135C22.2222 122.578 32.6736 112.5 45.5556 112.5H47.2917C51.5625 114.492 56.2153 115.625 61.1111 115.625C66.0069 115.625 70.6944 114.492 74.9306 112.5H76.6667C89.5486 112.5 100 122.578 100 135V142.5ZM177.778 121.875C177.778 123.594 176.528 125 175 125H125C123.472 125 122.222 123.594 122.222 121.875V115.625C122.222 113.906 123.472 112.5 125 112.5H175C176.528 112.5 177.778 113.906 177.778 115.625V121.875ZM177.778 96.875C177.778 98.5938 176.528 100 175 100H125C123.472 100 122.222 98.5938 122.222 96.875V90.625C122.222 88.9062 123.472 87.5 125 87.5H175C176.528 87.5 177.778 88.9062 177.778 90.625V96.875ZM177.778 71.875C177.778 73.5938 176.528 75 175 75H125C123.472 75 122.222 73.5938 122.222 71.875V65.625C122.222 63.9062 123.472 62.5 125 62.5H175C176.528 62.5 177.778 63.9062 177.778 65.625V71.875Z" fill="#8685EF"/>
</svg>
