<svg width="100" height="100" viewBox="0 0 100 100" fill="none" xmlns="http://www.w3.org/2000/svg">
<g clip-path="url(#clip0_73_3013)">
<path d="M28.1792 41.8168C28.1792 43.0501 28.3125 44.0459 28.5458 44.7751C28.8125 45.5084 29.1458 46.3084 29.6125 47.1751C29.7792 47.4376 29.8458 47.7043 29.8458 47.9376C29.8458 48.2709 29.6458 48.6043 29.2125 48.9376L27.1167 50.3334C26.8634 50.5161 26.562 50.6204 26.25 50.6334C25.9167 50.6334 25.5833 50.4668 25.2542 50.1668C24.8066 49.6853 24.4061 49.1621 24.0583 48.6043C23.6859 47.9652 23.3411 47.3105 23.025 46.6418C20.4333 49.7001 17.1708 51.2293 13.2458 51.2293C10.4542 51.2293 8.22501 50.4334 6.59585 48.8376C4.96668 47.2376 4.13751 45.1126 4.13751 42.4501C4.13751 39.6251 5.13335 37.3251 7.16251 35.6001C9.19168 33.8709 11.8833 33.0043 15.3083 33.0043C16.4417 33.0043 17.6042 33.1043 18.8333 33.2709C20.0667 33.4376 21.3333 33.7043 22.6583 34.0043V31.5751C22.6583 29.0459 22.1292 27.2834 21.0958 26.2543C20.0333 25.2209 18.2375 24.7251 15.6792 24.7251C14.5125 24.7251 13.3125 24.8543 12.0833 25.1543C10.8542 25.4543 9.65418 25.8209 8.49168 26.2876C8.11265 26.4573 7.72293 26.6021 7.32501 26.7209C7.15365 26.7762 6.9757 26.8084 6.79585 26.8168C6.32918 26.8168 6.09585 26.4834 6.09585 25.7876V24.1584C6.09585 23.6251 6.16251 23.2251 6.32918 22.9918C6.58087 22.6893 6.90074 22.4508 7.26251 22.2959C8.42501 21.6959 9.82085 21.1959 11.45 20.7959C13.1459 20.3618 14.8912 20.1503 16.6417 20.1668C20.6 20.1668 23.4917 21.0668 25.3542 22.8626C27.1833 24.6543 28.1125 27.3834 28.1125 31.0418V41.8168H28.1792ZM14.6792 46.8751C15.775 46.8751 16.9042 46.6751 18.1042 46.2751C19.3 45.8751 20.3667 45.1459 21.2625 44.1501C21.7958 43.5168 22.1958 42.8168 22.3958 42.0168C22.5917 41.2209 22.7292 40.2543 22.7292 39.1251V37.7293C21.7198 37.4832 20.6973 37.294 19.6667 37.1626C18.6302 37.0309 17.5865 36.9641 16.5417 36.9626C14.3125 36.9626 12.6833 37.3959 11.5833 38.2959C10.4875 39.1918 9.95835 40.4543 9.95835 42.1168C9.95835 43.6793 10.3542 44.8459 11.1875 45.6418C11.9833 46.4751 13.1458 46.8751 14.6792 46.8751ZM41.3875 50.4668C40.7875 50.4668 40.3875 50.3668 40.1208 50.1334C39.8542 49.9334 39.6209 49.4668 39.4209 48.8376L31.6083 23.1251C31.4564 22.694 31.3557 22.2464 31.3083 21.7918C31.3083 21.2584 31.575 20.9584 32.1042 20.9584H35.3667C35.9958 20.9584 36.4292 21.0626 36.6583 21.2918C36.9292 21.4918 37.1292 21.9584 37.325 22.5918L42.9167 44.6084L48.1042 22.5918C48.2708 21.9251 48.4708 21.4918 48.7333 21.2918C49.1331 21.0466 49.5986 20.9302 50.0667 20.9584H52.725C53.3584 20.9584 53.7917 21.0626 54.0583 21.2918C54.3208 21.4918 54.5583 21.9584 54.6875 22.5918L59.9417 44.8751L65.6959 22.5918C65.8959 21.9251 66.1292 21.4918 66.3625 21.2918C66.7485 21.0467 67.2021 20.93 67.6584 20.9584H70.7542C71.2834 20.9584 71.5875 21.2293 71.5875 21.7918C71.5875 21.9584 71.55 22.1251 71.5167 22.3251C71.4645 22.6094 71.3864 22.8884 71.2834 23.1584L63.2709 48.8668C63.0709 49.5334 62.8375 49.9626 62.5709 50.1626C62.1954 50.4035 61.7537 50.5201 61.3083 50.4959H58.4459C57.8167 50.4959 57.3833 50.3959 57.1125 50.1626C56.85 49.9293 56.6167 49.4959 56.4875 48.8293L51.3292 27.3793L46.2042 48.7959C46.0375 49.4626 45.8417 49.8959 45.5792 50.1293C45.3083 50.3626 44.8417 50.4626 44.2459 50.4626L41.3875 50.4668ZM84.1208 51.3626C82.3917 51.3626 80.6625 51.1626 79 50.7668C77.3375 50.3668 76.0417 49.9334 75.175 49.4334C74.6417 49.1376 74.2792 48.8043 74.1459 48.5043C74.0159 48.2101 73.9478 47.8925 73.9459 47.5709V45.8751C73.9459 45.1793 74.2125 44.8459 74.7084 44.8459C74.9084 44.8459 75.1083 44.8793 75.3083 44.9459C75.5083 45.0126 75.8084 45.1459 76.1417 45.2793C77.2709 45.7793 78.5 46.1751 79.8 46.4418C81.1292 46.7084 82.425 46.8418 83.7583 46.8418C85.85 46.8418 87.4834 46.4751 88.6125 45.7418C89.1538 45.4147 89.5989 44.9503 89.9026 44.3956C90.2063 43.8408 90.3578 43.2156 90.3417 42.5834C90.3539 42.1552 90.281 41.7289 90.1272 41.3291C89.9734 40.9292 89.7418 40.5639 89.4458 40.2543C88.8458 39.6251 87.7125 39.0584 86.0834 38.5251L81.2625 37.0251C78.8334 36.2626 77.0375 35.1334 75.9417 33.6376C74.8692 32.2571 74.2832 30.5607 74.275 28.8126C74.275 27.4168 74.5792 26.1876 75.175 25.1209C75.775 24.0584 76.5709 23.1251 77.5709 22.3959C78.5709 21.6293 79.6959 21.0626 81.0292 20.6668C82.3625 20.2668 83.7583 20.1001 85.2208 20.1001C85.95 20.1001 86.7167 20.1334 87.45 20.2334C88.2125 20.3334 88.9084 20.4668 89.6084 20.6001C90.275 20.7668 90.9084 20.9334 91.5042 21.1293C92.1042 21.3293 92.5709 21.5293 92.9042 21.7293C93.2969 21.9269 93.639 22.212 93.9042 22.5626C94.119 22.8862 94.2228 23.2707 94.2 23.6584V25.2209C94.2 25.9209 93.9334 26.2876 93.4334 26.2876C92.9907 26.2368 92.562 26.101 92.1709 25.8876C90.1615 25 87.9839 24.5579 85.7875 24.5918C83.8917 24.5918 82.3917 24.8876 81.3625 25.5209C80.3292 26.1543 79.8 27.1168 79.8 28.4793C79.8 29.4126 80.1334 30.2126 80.8 30.8418C81.4625 31.4751 82.6917 32.1084 84.4542 32.6751L89.1792 34.1668C91.5709 34.9334 93.3042 36.0001 94.3334 37.3626C95.3625 38.7251 95.8625 40.2876 95.8625 42.0168C95.8625 43.4459 95.5625 44.7459 95 45.8751C94.4 47.0084 93.6 48.0043 92.5708 48.8043C91.5375 49.6376 90.3083 50.2334 88.8792 50.6668C87.3792 51.1293 85.8208 51.3626 84.1208 51.3626V51.3626ZM90.4084 67.5293C79.4667 75.6126 63.5667 79.9001 49.9 79.9001C30.7417 79.9001 13.4833 72.8168 0.441679 61.0418C-0.587488 60.1126 0.341679 58.8459 1.57501 59.5793C15.675 67.7584 33.0708 72.7168 51.0625 72.7168C63.2042 72.7168 76.5375 70.1876 88.8125 65.0001C90.6417 64.1668 92.2042 66.1959 90.4084 67.5293V67.5293ZM94.9667 62.3376C93.5667 60.5459 85.7167 61.4751 82.1584 61.9084C81.0959 62.0418 80.9292 61.1084 81.8959 60.4084C88.1459 56.0209 98.425 57.2834 99.6209 58.7459C100.817 60.2459 99.2875 70.5209 93.4334 75.4418C92.5375 76.2084 91.6709 75.8084 92.0709 74.8126C93.4042 71.5209 96.3625 64.1043 94.9667 62.3376V62.3376Z" fill="#8685EF"/>
</g>
<defs>
<clipPath id="clip0_73_3013">
<rect width="100" height="100" fill="white"/>
</clipPath>
</defs>
</svg>
