<svg width="31" height="31" viewBox="0 0 31 31" fill="none" xmlns="http://www.w3.org/2000/svg">
<path d="M28.0938 3.875H2.90625C1.30115 3.875 0 5.17615 0 6.78125V24.2188C0 25.8238 1.30115 27.125 2.90625 27.125H28.0938C29.6988 27.125 31 25.8238 31 24.2188V6.78125C31 5.17615 29.6988 3.875 28.0938 3.875ZM28.0938 6.78125V9.25186C26.7362 10.3574 24.5719 12.0764 19.9449 15.6995C18.9253 16.5016 16.9054 18.4285 15.5 18.406C14.0948 18.4287 12.0743 16.5013 11.0551 15.6995C6.42887 12.077 4.26401 10.3576 2.90625 9.25186V6.78125H28.0938ZM2.90625 24.2188V12.9811C4.29362 14.0862 6.26109 15.6368 9.25992 17.9851C10.5833 19.0268 12.9008 21.3264 15.5 21.3124C18.0864 21.3264 20.3746 19.0602 21.7395 17.9856C24.7383 15.6374 26.7063 14.0863 28.0938 12.9812V24.2188H2.90625Z" fill="#C9C9C9"/>
</svg>
