<svg width="100" height="100" viewBox="0 0 100 100" fill="none" xmlns="http://www.w3.org/2000/svg">
<g clip-path="url(#clip0_236_2162)">
<path d="M50 50C50 45.5797 51.7559 41.3405 54.8815 38.2149C58.0071 35.0893 62.2464 33.3333 66.6666 33.3333C71.0869 33.3333 75.3261 35.0893 78.4517 38.2149C81.5773 41.3405 83.3333 45.5797 83.3333 50C83.3333 54.4203 81.5773 58.6595 78.4517 61.7851C75.3261 64.9107 71.0869 66.6667 66.6666 66.6667C62.2464 66.6667 58.0071 64.9107 54.8815 61.7851C51.7559 58.6595 50 54.4203 50 50ZM16.6666 83.3333C16.6666 78.9131 18.4226 74.6738 21.5482 71.5482C24.6738 68.4226 28.913 66.6667 33.3333 66.6667H50V83.3333C50 87.7536 48.244 91.9928 45.1184 95.1184C41.9928 98.244 37.7536 100 33.3333 100C28.913 100 24.6738 98.244 21.5482 95.1184C18.4226 91.9928 16.6666 87.7536 16.6666 83.3333ZM50 0V33.3333H66.6666C71.0869 33.3333 75.3261 31.5774 78.4517 28.4518C81.5773 25.3262 83.3333 21.0869 83.3333 16.6667C83.3333 12.2464 81.5773 8.00716 78.4517 4.88155C75.3261 1.75595 71.0869 0 66.6666 0L50 0ZM16.6666 16.6667C16.6666 21.0869 18.4226 25.3262 21.5482 28.4518C24.6738 31.5774 28.913 33.3333 33.3333 33.3333H50V0H33.3333C28.913 0 24.6738 1.75595 21.5482 4.88155C18.4226 8.00716 16.6666 12.2464 16.6666 16.6667V16.6667ZM16.6666 50C16.6666 54.4203 18.4226 58.6595 21.5482 61.7851C24.6738 64.9107 28.913 66.6667 33.3333 66.6667H50V33.3333H33.3333C28.913 33.3333 24.6738 35.0893 21.5482 38.2149C18.4226 41.3405 16.6666 45.5797 16.6666 50V50Z" fill="#8685EF"/>
</g>
<defs>
<clipPath id="clip0_236_2162">
<rect width="100" height="100" fill="white"/>
</clipPath>
</defs>
</svg>
