<svg width="100" height="100" viewBox="0 0 100 100" fill="none" xmlns="http://www.w3.org/2000/svg">
<path d="M16.2083 65.3042L26.0625 1.92082C26.1338 1.45098 26.3516 1.01562 26.6847 0.676705C27.0178 0.337793 27.4494 0.112609 27.9179 0.0332102C28.3865 -0.0461887 28.8681 0.0242441 29.2943 0.234482C29.7205 0.44472 30.0695 0.784047 30.2917 1.20416L40.8875 21.0833L16.2083 65.3042ZM86.1875 80.6833L76.8042 22.3542C76.7352 21.9453 76.5552 21.5633 76.2838 21.2498C76.0124 20.9363 75.6601 20.7034 75.2654 20.5766C74.8707 20.4497 74.4486 20.4338 74.0454 20.5305C73.6423 20.6272 73.2734 20.8329 72.9792 21.125L13.8125 80.6833L46.55 99.1333C47.5596 99.7006 48.6982 99.9985 49.8562 99.9985C51.0143 99.9985 52.1529 99.7006 53.1625 99.1333L86.1875 80.6833ZM59.5833 29.7833L52 15.275C51.8087 14.9101 51.5212 14.6046 51.1686 14.3914C50.8161 14.1782 50.412 14.0655 50 14.0655C49.588 14.0655 49.1839 14.1782 48.8314 14.3914C48.4788 14.6046 48.1913 14.9101 48 15.275L14.7083 74.9333L59.5833 29.7833Z" fill="#8685EF"/>
</svg>
