<svg width="100" height="100" viewBox="0 0 100 100" fill="none" xmlns="http://www.w3.org/2000/svg">
<path d="M68.3542 23.6501C67.875 23.6501 67.55 23.7084 67.2125 23.7876V23.8418H67.2708C67.4958 24.2751 67.8792 24.5918 68.1625 24.9793C68.3875 25.4251 68.5792 25.8709 68.8042 26.3126L68.8625 26.2501C69.2542 25.9751 69.4458 25.5334 69.4458 24.8626C69.2792 24.6668 69.2542 24.4709 69.1125 24.2793C68.9458 24.0001 68.5875 23.8626 68.3625 23.6418L68.3542 23.6501ZM24.0417 78.6251H20.1792C20.0542 72.1168 19.6667 66.0001 19.0542 60.2501H19.0208L13.1458 78.6251H10.2083L4.375 60.2501H4.33333C3.90417 65.7626 3.63333 71.8876 3.52083 78.6251H0C0.229167 70.4334 0.8 62.7501 1.70833 55.5834H6.5L12.0625 72.5168H12.0958L17.7083 55.5834H22.2708C23.2792 63.9793 23.8708 71.6668 24.0542 78.6251H24.0417ZM40.7792 61.6251C39.2042 70.1459 37.1292 76.3459 34.5625 80.2084C32.5542 83.1918 30.3542 84.6793 27.9667 84.6793C27.3292 84.6793 26.55 84.4876 25.6083 84.1043V82.0459C26.0667 82.1168 26.6083 82.1543 27.2167 82.1543C28.3333 82.1543 29.2292 81.8418 29.9125 81.2293C30.7333 80.4793 31.1417 79.6376 31.1417 78.7084C31.1417 78.0626 30.8208 76.7501 30.1833 74.7751L25.9583 61.6251H29.75L32.7792 71.4584C33.4625 73.6918 33.75 75.2501 33.6333 76.1376C35.3 71.7043 36.4583 66.8584 37.1125 61.6251H40.7792V61.6251ZM92.1333 78.6251H81.175V55.5834H84.8625V75.7918H92.1333V78.6251ZM78.3 79.1876L74.0667 77.1043C74.4417 76.7876 74.8042 76.4459 75.1292 76.0626C76.9333 73.9543 77.8292 70.8209 77.8292 66.6751C77.8292 59.0501 74.8375 55.2334 68.85 55.2334C65.9167 55.2334 63.625 56.2001 61.975 58.1376C60.1833 60.2543 59.2833 63.3709 59.2833 67.4918C59.2833 71.5418 60.075 74.5168 61.675 76.4084C63.1333 78.1168 65.3292 78.9709 68.2708 78.9709C69.3708 78.9709 70.3792 78.8334 71.2917 78.5626L76.8125 81.7793L78.3125 79.1876H78.3ZM64.5833 74.0126C63.6458 72.5126 63.1792 70.0959 63.1792 66.7793C63.1792 60.9751 64.9458 58.0709 68.4708 58.0709C70.3167 58.0709 71.6792 58.7668 72.5417 60.1543C73.475 61.6626 73.9417 64.0543 73.9417 67.3334C73.9417 73.1834 72.175 76.1168 68.65 76.1168C66.7958 76.1168 65.4417 75.4209 64.575 74.0334L64.5833 74.0126ZM57.675 72.2418C57.675 74.2001 56.9583 75.8084 55.525 77.0584C54.0917 78.3084 52.1792 78.9334 49.7583 78.9334C47.4958 78.9334 45.325 78.2168 43.2042 76.7876L44.1917 74.8043C46.0167 75.7209 47.6625 76.1709 49.15 76.1709C50.5333 76.1709 51.6208 75.8668 52.4125 75.2543C53.1958 74.6418 53.6625 73.7793 53.6625 72.6918C53.6625 71.3168 52.7042 70.1501 50.9625 69.1709C49.3458 68.2834 46.1167 66.4334 46.1167 66.4334C44.3583 65.1543 43.4833 63.7834 43.4833 61.5293C43.4833 59.6543 44.1375 58.1543 45.4417 57.0084C46.7542 55.8501 48.4417 55.2793 50.525 55.2793C52.6583 55.2793 54.6083 55.8459 56.3583 56.9876L55.4708 58.9709C53.9708 58.3376 52.4917 58.0126 51.0375 58.0126C49.8583 58.0126 48.9458 58.2959 48.3125 58.8709C47.675 59.4376 47.2792 60.1626 47.2792 61.0543C47.2792 62.4209 48.2542 63.5959 50.0542 64.5959C51.6917 65.4918 55 67.3876 55 67.3876C56.8042 68.6584 57.7 70.0126 57.7 72.2543L57.675 72.2418ZM96.7667 47.8584C94.5375 47.8001 92.8083 48.0251 91.3625 48.6418C90.9458 48.8084 90.2792 48.8084 90.2208 49.3376C90.45 49.5584 90.4833 49.9209 90.6792 50.2293C91.0125 50.7876 91.5875 51.5334 92.1208 51.9251C92.7042 52.3834 93.2875 52.8251 93.9 53.2168C94.9833 53.8834 96.2125 54.2793 97.275 54.9501C97.8792 55.3418 98.4958 55.8376 99.1083 56.2543C99.4125 56.4626 99.6083 56.8376 100 56.9709V56.8876C99.8083 56.6376 99.75 56.2751 99.5625 55.9959C99.2833 55.7168 99.0042 55.4668 98.7292 55.1918C97.9208 54.1084 96.9167 53.1626 95.8333 52.3793C94.9417 51.7709 92.9917 50.9209 92.625 49.9001L92.5708 49.8418C93.1792 49.7876 93.9042 49.5668 94.4875 49.4001C95.4333 49.1501 96.3 49.2043 97.2792 48.9584C97.7208 48.8459 98.1667 48.7084 98.6125 48.5668V48.3168C98.1125 47.8168 97.7375 47.1376 97.2208 46.6709C95.8042 45.4418 94.2333 44.2459 92.6208 43.2418C91.7458 42.6834 90.6375 42.3251 89.7167 41.8501C89.3833 41.6834 88.825 41.6001 88.6333 41.3209C88.1333 40.7126 87.8417 39.9043 87.4875 39.1793C86.6875 37.6459 85.9042 35.9501 85.2083 34.3334C84.7083 33.2418 84.4042 32.1543 83.7917 31.1543C80.9167 26.4168 77.8042 23.5459 73.0167 20.7376C71.9875 20.1543 70.7542 19.9043 69.45 19.5959C68.7542 19.5626 68.0583 19.5126 67.3667 19.4834C66.9083 19.2876 66.4667 18.7584 66.075 18.5043C64.4917 17.5043 60.3917 15.3376 59.225 18.2043C58.475 20.0126 60.3375 21.7959 60.9833 22.7126C61.4625 23.3501 62.0667 24.0793 62.4 24.7959C62.5958 25.2793 62.65 25.7751 62.8458 26.2793C63.2875 27.5043 63.7083 28.8709 64.2917 30.0168C64.5958 30.6001 64.9292 31.2126 65.3208 31.7376C65.5458 32.0418 65.9292 32.1834 66.0167 32.6834C65.625 33.2501 65.6 34.0751 65.375 34.7668C64.375 37.9209 64.7667 41.8209 66.1833 44.1418C66.6292 44.8334 67.6917 46.3668 69.1125 45.7793C70.3625 45.2793 70.0875 43.6959 70.4458 42.3001C70.5292 41.9668 70.475 41.7459 70.6458 41.5209V41.5834C71.0375 42.3668 71.4292 43.1126 71.7875 43.8959C72.6458 45.2626 74.1458 46.6793 75.4 47.6251C76.0667 48.1251 76.5958 48.9918 77.4292 49.3001V49.2168H77.3667C77.1875 48.9751 76.95 48.8584 76.725 48.6626C76.225 48.1626 75.6625 47.5501 75.2667 46.9959C74.1 45.4251 73.0708 43.7043 72.1542 41.9209C71.6958 41.0459 71.3125 40.1043 70.9458 39.2418C70.7792 38.9084 70.7792 38.4084 70.5 38.2418C70.0833 38.8501 69.4708 39.3793 69.1667 40.1293C68.6375 41.3293 68.5833 42.8043 68.3833 44.3376C68.2708 44.3668 68.325 44.3376 68.2708 44.3959C67.3792 44.1793 67.075 43.2543 66.7417 42.4793C65.9083 40.5001 65.7708 37.3209 66.4917 35.0418C66.6875 34.4584 67.5208 32.6168 67.1875 32.0584C67.0125 31.5293 66.4625 31.2251 66.1583 30.7959C65.7958 30.2793 65.4083 29.6084 65.1583 29.0168C64.4917 27.4584 64.1583 25.7334 63.4333 24.1751C63.1 23.4543 62.5167 22.7001 62.0417 22.0376C61.5125 21.2876 60.9292 20.7584 60.5083 19.8709C60.3708 19.5668 60.175 19.0626 60.3958 18.7293C60.4542 18.5043 60.5708 18.4168 60.7875 18.3543C61.1542 18.0543 62.1833 18.4459 62.5458 18.6126C63.575 19.0293 64.4417 19.4209 65.3042 20.0043C65.6958 20.2793 66.1167 20.8084 66.6167 20.9459H67.2C68.0917 21.1418 69.0958 21.0043 69.9292 21.2501C71.4083 21.7251 72.7417 22.4168 73.9375 23.1668C77.5875 25.4834 80.5875 28.7709 82.625 32.6918C82.9583 33.3334 83.1042 33.9209 83.4083 34.5876C83.9917 35.9626 84.7125 37.3501 85.3042 38.6793C85.8875 39.9918 86.45 41.3293 87.2875 42.4168C87.7042 43.0001 89.3792 43.3043 90.1292 43.6084C90.6833 43.8584 91.5458 44.0876 92.0458 44.3918C93.0042 44.9751 93.9375 45.6418 94.8375 46.2834C95.2958 46.6001 96.6833 47.2959 96.7667 47.8584V47.8584Z" fill="#8685EF"/>
</svg>
