<svg width="100" height="100" viewBox="0 0 100 100" fill="none" xmlns="http://www.w3.org/2000/svg">
<path d="M56.8059 49.9594C56.8059 54.0875 53.6559 57.4344 49.7706 57.4344C45.8854 57.4344 42.7354 54.0875 42.7354 49.9594C42.7354 45.8313 45.8854 42.4844 49.7706 42.4844C53.6559 42.4844 56.8059 45.8313 56.8059 49.9594Z" fill="#8685EF"/>
<path d="M49.7706 77.4469C55.2942 83.1531 60.7383 86.5281 65.1265 86.5281C66.5647 86.5281 67.9265 86.2063 69.0589 85.4844C72.9912 83.0719 74.4295 77.0438 73.0677 68.4438C72.8412 66.9156 72.5383 65.3906 72.1589 63.7813C73.6706 63.3 75.0324 62.8156 76.3942 62.3344C84.0353 59.2 88.2706 54.8594 88.2706 50.1188C88.2706 45.2969 84.0353 40.9563 76.3942 37.9031C75.0324 37.3406 73.6706 36.8594 72.1589 36.4563C72.5383 34.85 72.8412 33.3219 73.0677 31.7938C74.353 23.0344 72.9177 16.925 68.9824 14.5125C67.8471 13.7906 66.4853 13.4688 65.05 13.4688C60.7383 13.4688 55.2148 16.8438 49.6942 22.55C44.2471 16.8438 38.8 13.4688 34.4148 13.4688C32.9765 13.4688 31.6147 13.7906 30.4824 14.5125C26.55 16.925 25.1118 22.9531 26.4736 31.5531C26.7 33.0813 27.003 34.6063 27.3824 36.2156C25.8706 36.6969 24.5089 37.1813 23.1471 37.6625C15.5059 40.7969 11.2706 45.1375 11.2706 49.8781C11.2706 54.7 15.5059 59.0406 23.1471 62.0938C24.5089 62.6563 25.8706 63.1375 27.3824 63.5406C27.003 65.1469 26.7 66.675 26.4736 68.2031C25.1883 76.8031 26.6236 82.9125 30.4824 85.2438C31.6177 85.9688 32.9795 86.2875 34.4148 86.2875C38.803 86.4469 44.25 83.0719 49.7706 77.4469ZM45.5324 66.5969C46.8942 66.6781 48.3324 66.6781 49.7677 66.6781C51.203 66.6781 52.6412 66.6781 54.003 66.5969C52.6412 68.525 51.203 70.2938 49.7677 71.9813C48.3295 70.2938 46.8942 68.525 45.5324 66.5969ZM36.153 58.3188C36.9089 59.6844 37.5912 60.9719 38.4236 62.2563C36.0795 61.9344 33.8853 61.5313 31.7677 61.05C32.45 58.8813 33.2059 56.6281 34.1118 54.3781C34.7177 55.6625 35.3971 57.0313 36.153 58.3156V58.3188ZM31.7647 38.9469C33.8824 38.4656 36.0765 38.0625 38.4206 37.7406C37.6647 39.0281 36.9089 40.3125 36.15 41.6781C35.3912 43.0438 34.7118 44.3313 34.1089 45.6969C33.1265 43.3656 32.3677 41.1156 31.7647 38.9438V38.9469ZM35.9265 49.9594C36.9089 47.7906 37.9677 45.6188 39.1795 43.45C40.3148 41.3594 41.6 39.2719 42.8853 37.1813C45.1559 37.0219 47.4236 36.9406 49.7706 36.9406C52.1912 36.9406 54.4618 37.0219 56.6559 37.1813C58.0177 39.2719 59.2265 41.3594 60.3618 43.45C61.5736 45.6188 62.6324 47.7906 63.6147 49.9594C62.6324 52.1281 61.5736 54.3 60.3618 56.4688C59.2265 58.5594 57.9412 60.6469 56.6559 62.7375C54.3853 62.8969 52.1177 62.9781 49.7706 62.9781C47.35 62.9781 45.0795 62.8969 42.8853 62.7375C41.5236 60.6469 40.3148 58.5594 39.1795 56.4688C37.9677 54.2969 36.9089 52.1281 35.9265 49.9594ZM65.5059 45.6188L63.4647 41.6C62.7089 40.2344 62.0265 38.9469 61.1942 37.6625C63.5383 37.9844 65.7324 38.3875 67.85 38.8688C67.1706 41.1188 66.4118 43.3688 65.5059 45.6219V45.6188ZM65.5059 54.3C66.4147 56.55 67.1706 58.8 67.85 60.9719C65.7324 61.4531 63.5383 61.8563 61.1942 62.1781C61.95 60.8906 62.7059 59.6063 63.4647 58.2406C64.1471 57.0344 64.8265 55.6688 65.5059 54.3031V54.3ZM67.2442 82.1906C66.6383 82.5938 65.8824 82.7531 65.05 82.7531C61.3442 82.7531 56.7295 79.5375 52.1912 74.7156C54.3853 72.225 56.503 69.4094 58.6206 66.275C62.1765 65.9531 65.5795 65.3906 68.7589 64.5875C69.1383 66.0344 69.3647 67.4813 69.5912 68.9281C70.65 75.7594 69.8177 80.6625 67.2471 82.1906H67.2442ZM71.1795 39.8313C79.653 42.4031 84.7206 46.3406 84.7206 49.9594C84.7206 53.0938 81.2412 56.2281 75.1147 58.7219C73.903 59.2031 72.5442 59.6875 71.1824 60.0875C70.2 56.7906 68.9883 53.4156 67.4765 49.9594C68.9883 46.5031 70.2765 43.1281 71.1824 39.8313H71.1795ZM65.1265 17.1656C65.9589 17.1656 66.6383 17.325 67.3206 17.7281C69.8177 19.2563 70.7236 24.0781 69.6648 30.9906C69.4383 32.3563 69.1353 33.8031 68.8324 35.3313C65.6559 34.6063 62.25 34.0438 58.6942 33.6438C56.653 30.5094 54.4589 27.6969 52.2648 25.2031C56.803 20.4594 61.4177 17.1656 65.1236 17.1656H65.1265ZM54.0059 33.3219C52.6442 33.2406 51.2059 33.2406 49.7706 33.2406C48.3353 33.2406 46.8971 33.2406 45.5353 33.3219C46.8971 31.3938 48.3353 29.625 49.7706 27.9375C51.2089 29.625 52.6442 31.475 54.0059 33.3219ZM32.2942 17.7281C32.9 17.325 33.6559 17.1656 34.4883 17.1656C38.1942 17.1656 42.8089 20.3812 47.3471 25.2031C45.153 27.6938 43.0353 30.5063 40.9177 33.6438C37.3618 33.9656 33.9589 34.5281 30.7795 35.3313C30.4 33.8844 30.1736 32.4375 29.9471 30.9906C28.8883 24.1594 29.7206 19.3375 32.2912 17.7281H32.2942ZM28.3618 60.0875C19.8883 57.5156 14.8206 53.5781 14.8206 49.9594C14.8206 46.825 18.3 43.6906 24.4265 41.2C25.6383 40.7188 26.9971 40.2344 28.3589 39.8344C29.3412 43.1313 30.553 46.5063 32.0648 49.9625C30.553 53.4188 29.2647 56.875 28.3589 60.0906L28.3618 60.0875ZM29.95 68.9281C30.1765 67.5625 30.4795 66.1156 30.7824 64.5875C33.9589 65.3125 37.3647 65.875 40.9206 66.275C42.9618 69.4094 45.1559 72.2219 47.35 74.7156C42.8118 79.4563 38.1971 82.7531 34.4912 82.7531C33.6589 82.7531 32.9795 82.5938 32.2971 82.1906C29.7236 80.6625 28.8942 75.7594 29.953 68.9281H29.95Z" fill="#8685EF"/>
</svg>
